<svg viewBox="0 0 196 42" xmlns="http://www.w3.org/2000/svg">
  <path d="M117.632 13.564c-.365-7.317-6.603-13.14-14.247-13.14a14.487 14.487 0 0 0-9.077 3.159v-2.53H83.933v38.944h10.375V15.499c0-3.469 2.903-6.281 6.484-6.281 3.58 0 6.484 2.812 6.484 6.281l10.356-1.935zm-1.1 26.15a6.36 6.36 0 0 0 .913-7.841l-5.41-8.76-5.412 8.76a6.36 6.36 0 0 0 9.909 7.84zm30.62-23.614L159.15 1.052h-13.617L134.035 17.58l-.391-.178V1.052H123.27v38.945h10.374V29.318c0-3.469 2.903-6.281 6.484-6.281s6.484 2.812 6.484 6.281v10.679h10.374V28.062c0-5.835-4.203-10.71-9.834-11.962zm37.824 9.45h-12.969c0 3.468 2.903 6.281 6.485 6.281 3.58 0 6.484-2.813 6.484-6.281zm10.374-8.795v23.242h-10.374v-2.531a14.489 14.489 0 0 1-9.078 3.159c-7.878 0-14.265-6.187-14.265-13.82v-9.421h23.343v-1.885c0-3.469-2.903-6.281-6.484-6.281-3.38 0-6.153 2.505-6.454 5.703l-9.963-1.862C163.804 5.82 170.494.424 178.492.424c9.31 0 16.858 7.312 16.858 16.331zM67.94 25.55H54.972c0 3.468 2.903 6.281 6.484 6.281 3.58 0 6.484-2.813 6.484-6.281zm10.374-8.795v23.242H67.94v-2.531a14.489 14.489 0 0 1-9.078 3.159c-7.878 0-14.265-6.187-14.265-13.82v-9.421H67.94v-1.885c0-3.469-2.903-6.281-6.484-6.281-3.38 0-6.153 2.505-6.454 5.703l-9.963-1.862C46.77 5.82 53.46.424 61.456.424c9.31 0 16.858 7.312 16.858 16.331zM46.301 1.052L29.9 39.997H17.05L.651 1.052H12.97l10.506 25.974L33.98 1.052H46.3z" fill="#303030" fill-rule="evenodd"/>
</svg>
